<svg width="31" height="20" viewBox="0 0 31 20" fill="none" xmlns="http://www.w3.org/2000/svg">
<path d="M27.4559 0.28833H3.30967C1.78247 0.28833 0.50293 1.36941 0.50293 2.70274V17.2973C0.50293 18.6307 1.7412 19.7478 3.30967 19.7478H27.4559C28.9831 19.7478 30.2626 18.6667 30.2626 17.2973V2.70274C30.2213 1.36941 28.9831 0.28833 27.4559 0.28833ZM27.4559 17.2973H3.30967V7.89193C4.63048 8.82887 6.52916 10.1262 9.41845 12.0721C10.6567 12.973 12.8856 14.8829 15.3621 14.8829C17.8387 14.8829 20.0263 13.0091 21.3471 12.1081C24.2364 10.1262 26.0938 8.82887 27.4559 7.92797V17.2973ZM27.4559 4.79283C26.135 5.72977 24.0713 7.17121 19.6548 10.1982C18.6642 10.8829 16.7242 12.4685 15.4034 12.4685C14.0413 12.5045 12.1014 10.8829 11.152 10.1982C6.69426 7.13518 4.58921 5.69374 3.30967 4.79283V2.70274H27.4559V4.79283Z" fill="#929292"/>
</svg>
