<svg width="70" height="71" viewBox="0 0 70 71" fill="none" xmlns="http://www.w3.org/2000/svg">
<rect y="0.5" width="70" height="70" rx="35" fill="#AC4500"/>
<g clip-path="url(#clip0_4_112)">
<path d="M40.0561 34.6866L35.8232 30.4453C35.903 30.3816 36.0003 30.3158 36.0843 30.2353C36.7045 29.6501 37.2799 29.0096 37.9463 28.4853C39.015 27.6448 40.2617 27.0597 41.5912 26.7749C42.9206 26.49 44.2976 26.5129 45.6169 26.8418C46.9361 27.1707 48.1627 27.7969 49.2028 28.6725C50.243 29.5481 51.0691 30.65 51.6181 31.8938C52.1672 33.1377 52.4245 34.4906 52.3705 35.8491C52.3165 37.2077 51.9526 38.5359 51.3066 39.7323C50.6605 40.9286 49.7495 41.9614 48.6432 42.7517C47.5368 43.542 46.2644 44.0689 44.9232 44.292C43.5221 44.553 42.0783 44.4628 40.7206 44.0295C39.3629 43.5962 38.1336 42.8334 37.1427 41.8091C34.314 39.0252 31.5252 36.2007 28.7147 33.3972C28.2982 32.9707 27.7643 32.6774 27.1809 32.5547C26.5975 32.432 25.9907 32.4853 25.4376 32.7078C24.8845 32.9304 24.41 33.3122 24.0741 33.8048C23.7383 34.2975 23.5564 34.8787 23.5514 35.4749C23.5463 36.0711 23.7185 36.6553 24.046 37.1535C24.3734 37.6518 24.8415 38.0415 25.3908 38.2733C25.94 38.5052 26.5458 38.5687 27.1312 38.4558C27.7166 38.3429 28.2553 38.0587 28.679 37.6392C29.071 37.2528 29.4581 36.8615 29.8473 36.473C29.89 36.4303 29.9362 36.3897 29.9761 36.3519L34.1411 40.5232C34.1411 40.5169 34.1411 40.5316 34.1355 40.5386C33.4033 41.3348 32.6101 42.0727 31.7632 42.7457C30.6758 43.53 29.4255 44.0592 28.1054 44.2939C26.7853 44.5285 25.4293 44.4626 24.1382 44.1011C22.847 43.7396 21.654 43.0917 20.6477 42.2057C19.6414 41.3196 18.8477 40.2181 18.3257 38.9831C17.8037 37.7481 17.5667 36.4114 17.6324 35.0722C17.6981 33.733 18.0648 32.4258 18.7052 31.2479C19.3456 30.0699 20.2433 29.0514 21.3315 28.2681C22.4196 27.4848 23.6704 26.9568 24.9907 26.7234C26.4137 26.4477 27.8831 26.5327 29.2647 26.9707C30.6464 27.4087 31.8964 28.1857 32.9007 29.2308C35.7175 32.0105 38.5007 34.8238 41.3007 37.6182C41.7188 38.0414 42.2529 38.3313 42.8355 38.4515C43.4182 38.5717 44.0233 38.5168 44.5748 38.2936C45.1263 38.0704 45.5993 37.689 45.9344 37.1974C46.2695 36.7059 46.4515 36.1261 46.4577 35.5312C46.4638 34.9363 46.2937 34.353 45.9688 33.8546C45.644 33.3562 45.1789 32.9651 44.6321 32.7306C44.0854 32.4961 43.4815 32.4287 42.8965 32.5369C42.3115 32.645 41.7716 32.9239 41.3448 33.3384C40.9479 33.7283 40.5559 34.1238 40.1646 34.5193C40.1218 34.5715 40.0843 34.6278 40.0526 34.6873" fill="white"/>
</g>
<defs>
<clipPath id="clip0_4_112">
<rect width="34.7536" height="17.85" fill="white" transform="translate(17.6232 26.575)"/>
</clipPath>
</defs>
</svg>
